<mxfile host="app.diagrams.net" agent="Mozilla/5.0 (X11; Linux x86_64) AppleWebKit/537.36 (KHTML, like Gecko) Chrome/131.0.0.0 Safari/537.36" version="26.0.4">
  <diagram name="Page-1" id="KM3ASbXPL9dcE-Px439k">
    <mxGraphModel dx="882" dy="579" grid="1" gridSize="10" guides="1" tooltips="1" connect="1" arrows="1" fold="1" page="1" pageScale="1" pageWidth="850" pageHeight="1100" math="1" shadow="0">
      <root>
        <mxCell id="0" />
        <mxCell id="1" parent="0" />
        <mxCell id="l9sD3UjUlKBT9NfK948P-19" value="" style="rounded=0;whiteSpace=wrap;html=1;dashed=1;fillColor=none;" parent="1" vertex="1">
          <mxGeometry x="90" y="30" width="670" height="360" as="geometry" />
        </mxCell>
        <mxCell id="l9sD3UjUlKBT9NfK948P-29" value="" style="shape=hexagon;perimeter=hexagonPerimeter2;whiteSpace=wrap;html=1;fixedSize=1;rotation=90;fillColor=none;" parent="1" vertex="1">
          <mxGeometry x="17.5" y="147.5" width="300" height="115" as="geometry" />
        </mxCell>
        <mxCell id="l9sD3UjUlKBT9NfK948P-10" value="" style="rounded=0;whiteSpace=wrap;html=1;dashed=1;fillColor=none;" parent="1" vertex="1">
          <mxGeometry x="270" y="300" width="450" height="200" as="geometry" />
        </mxCell>
        <mxCell id="l9sD3UjUlKBT9NfK948P-28" style="edgeStyle=orthogonalEdgeStyle;rounded=0;orthogonalLoop=1;jettySize=auto;html=1;exitX=0.5;exitY=1;exitDx=0;exitDy=0;" parent="1" source="l9sD3UjUlKBT9NfK948P-1" target="l9sD3UjUlKBT9NfK948P-2" edge="1">
          <mxGeometry relative="1" as="geometry" />
        </mxCell>
        <mxCell id="l9sD3UjUlKBT9NfK948P-1" value="Policy Learner&lt;br&gt;(Offline RL / Imitation Learning)" style="rounded=1;whiteSpace=wrap;html=1;" parent="1" vertex="1">
          <mxGeometry x="435" y="175" width="120" height="60" as="geometry" />
        </mxCell>
        <mxCell id="l9sD3UjUlKBT9NfK948P-16" style="edgeStyle=orthogonalEdgeStyle;rounded=0;orthogonalLoop=1;jettySize=auto;html=1;exitX=0.5;exitY=1;exitDx=0;exitDy=0;entryX=0.5;entryY=0;entryDx=0;entryDy=0;" parent="1" source="l9sD3UjUlKBT9NfK948P-2" target="l9sD3UjUlKBT9NfK948P-13" edge="1">
          <mxGeometry relative="1" as="geometry" />
        </mxCell>
        <mxCell id="l9sD3UjUlKBT9NfK948P-2" value="Policy ($pi_n$)" style="rounded=1;whiteSpace=wrap;html=1;" parent="1" vertex="1">
          <mxGeometry x="435" y="320" width="120" height="60" as="geometry" />
        </mxCell>
        <mxCell id="l9sD3UjUlKBT9NfK948P-17" style="edgeStyle=orthogonalEdgeStyle;rounded=0;orthogonalLoop=1;jettySize=auto;html=1;exitX=1;exitY=0.5;exitDx=0;exitDy=0;entryX=0;entryY=0.5;entryDx=0;entryDy=0;" parent="1" source="l9sD3UjUlKBT9NfK948P-9" target="l9sD3UjUlKBT9NfK948P-13" edge="1">
          <mxGeometry relative="1" as="geometry" />
        </mxCell>
        <mxCell id="l9sD3UjUlKBT9NfK948P-9" value="Combined Policy&lt;br&gt;$Pi_{n-1}$" style="rounded=1;whiteSpace=wrap;html=1;" parent="1" vertex="1">
          <mxGeometry x="290" y="410" width="120" height="60" as="geometry" />
        </mxCell>
        <mxCell id="l9sD3UjUlKBT9NfK948P-12" value="Master Policy&lt;br&gt;$Pi_{n}$" style="rounded=1;whiteSpace=wrap;html=1;" parent="1" vertex="1">
          <mxGeometry x="580" y="410" width="120" height="60" as="geometry" />
        </mxCell>
        <mxCell id="l9sD3UjUlKBT9NfK948P-18" style="edgeStyle=orthogonalEdgeStyle;rounded=0;orthogonalLoop=1;jettySize=auto;html=1;exitX=1;exitY=0.5;exitDx=0;exitDy=0;" parent="1" source="l9sD3UjUlKBT9NfK948P-13" target="l9sD3UjUlKBT9NfK948P-12" edge="1">
          <mxGeometry relative="1" as="geometry" />
        </mxCell>
        <mxCell id="l9sD3UjUlKBT9NfK948P-13" value="Policy Integrator&lt;br&gt;(CL)" style="rhombus;whiteSpace=wrap;html=1;" parent="1" vertex="1">
          <mxGeometry x="450" y="400" width="80" height="80" as="geometry" />
        </mxCell>
        <mxCell id="l9sD3UjUlKBT9NfK948P-20" value="Task 1 Data" style="ellipse;whiteSpace=wrap;html=1;" parent="1" vertex="1">
          <mxGeometry x="130" y="125" width="75" height="50" as="geometry" />
        </mxCell>
        <mxCell id="l9sD3UjUlKBT9NfK948P-27" style="edgeStyle=orthogonalEdgeStyle;rounded=0;orthogonalLoop=1;jettySize=auto;html=1;exitX=1;exitY=0.5;exitDx=0;exitDy=0;entryX=0;entryY=0.5;entryDx=0;entryDy=0;" parent="1" source="l9sD3UjUlKBT9NfK948P-22" target="l9sD3UjUlKBT9NfK948P-24" edge="1">
          <mxGeometry relative="1" as="geometry" />
        </mxCell>
        <mxCell id="l9sD3UjUlKBT9NfK948P-22" value="Task n Data" style="ellipse;whiteSpace=wrap;html=1;" parent="1" vertex="1">
          <mxGeometry x="130" y="185" width="75" height="50" as="geometry" />
        </mxCell>
        <mxCell id="l9sD3UjUlKBT9NfK948P-23" value="Task N Data" style="ellipse;whiteSpace=wrap;html=1;" parent="1" vertex="1">
          <mxGeometry x="130" y="260" width="75" height="50" as="geometry" />
        </mxCell>
        <mxCell id="l9sD3UjUlKBT9NfK948P-25" style="edgeStyle=orthogonalEdgeStyle;rounded=0;orthogonalLoop=1;jettySize=auto;html=1;entryX=0;entryY=0.5;entryDx=0;entryDy=0;" parent="1" source="l9sD3UjUlKBT9NfK948P-24" target="l9sD3UjUlKBT9NfK948P-1" edge="1">
          <mxGeometry relative="1" as="geometry" />
        </mxCell>
        <mxCell id="l9sD3UjUlKBT9NfK948P-24" value="&lt;div style=&quot;&quot;&gt;&lt;span style=&quot;background-color: transparent; color: light-dark(rgb(0, 0, 0), rgb(255, 255, 255));&quot;&gt;Task&lt;/span&gt;&lt;/div&gt;&lt;div style=&quot;&quot;&gt;&lt;span style=&quot;background-color: transparent; color: light-dark(rgb(0, 0, 0), rgb(255, 255, 255));&quot;&gt;Selector&lt;/span&gt;&lt;/div&gt;" style="triangle;whiteSpace=wrap;html=1;align=center;" parent="1" vertex="1">
          <mxGeometry x="330" y="155" width="60" height="100" as="geometry" />
        </mxCell>
        <mxCell id="l9sD3UjUlKBT9NfK948P-30" value="Task Data Buffer" style="text;html=1;align=center;verticalAlign=middle;whiteSpace=wrap;rounded=0;" parent="1" vertex="1">
          <mxGeometry x="137.5" y="80" width="60" height="30" as="geometry" />
        </mxCell>
        <mxCell id="l9sD3UjUlKBT9NfK948P-31" value="Knowledge&lt;br&gt;Intregation Phase" style="text;html=1;align=center;verticalAlign=middle;whiteSpace=wrap;rounded=0;fillColor=default;" parent="1" vertex="1">
          <mxGeometry x="630" y="310" width="80" height="50" as="geometry" />
        </mxCell>
        <mxCell id="l9sD3UjUlKBT9NfK948P-32" value="&lt;b&gt;Knowledge&lt;br&gt;Learning&lt;br&gt;Phase&lt;/b&gt;" style="text;html=1;align=center;verticalAlign=middle;whiteSpace=wrap;rounded=0;fillColor=default;" parent="1" vertex="1">
          <mxGeometry x="660" y="50" width="80" height="50" as="geometry" />
        </mxCell>
      </root>
    </mxGraphModel>
  </diagram>
</mxfile>
